HIERARCHY
ROOT Hips
{
	OFFSET 0.000000 0.000000 0.000000
	CHANNELS 6 Xposition Yposition Zposition Zrotation Yrotation Xrotation
	JOINT Spine
	{
		OFFSET 0.000000 0.744707 0.000000
		CHANNELS 6 Xposition Yposition Zposition Zrotation Yrotation Xrotation
		JOINT Spine1
		{
			OFFSET 0.000000 2.032240 0.000000
			CHANNELS 6 Xposition Yposition Zposition Zrotation Yrotation Xrotation
			JOINT Neck
			{
				OFFSET 0.000000 2.213880 0.000000
				CHANNELS 6 Xposition Yposition Zposition Zrotation Yrotation Xrotation
				JOINT Head
				{
					OFFSET 0.000000 1.407680 0.181636
					CHANNELS 6 Xposition Yposition Zposition Zrotation Yrotation Xrotation
					End Site
					{
						OFFSET 0.000000 1.816356 0.000000
					}
				}
			}
			JOINT LeftShoulder
			{
				OFFSET 0.365767 1.787590 -0.048012
				CHANNELS 6 Xposition Yposition Zposition Zrotation Yrotation Xrotation
				JOINT LeftArm
				{
					OFFSET 1.305160 0.000000 0.000000
					CHANNELS 6 Xposition Yposition Zposition Zrotation Yrotation Xrotation
					JOINT LeftForeArm
					{
						OFFSET 2.559210 0.000000 0.000000
						CHANNELS 6 Xposition Yposition Zposition Zrotation Yrotation Xrotation
						JOINT LeftHand
						{
							OFFSET 2.378450 0.000000 0.000000
							CHANNELS 6 Xposition Yposition Zposition Zrotation Yrotation Xrotation
							End Site
							{
								OFFSET 1.362267 0.000000 0.000000
							}
						}
					}
				}
			}
			JOINT RightShoulder
			{
				OFFSET -0.360721 1.787590 -0.048012
				CHANNELS 6 Xposition Yposition Zposition Zrotation Yrotation Xrotation
				JOINT RightArm
				{
					OFFSET -1.305160 0.000000 0.000000
					CHANNELS 6 Xposition Yposition Zposition Zrotation Yrotation Xrotation
					JOINT RightForeArm
					{
						OFFSET -2.559210 0.000000 0.000000
						CHANNELS 6 Xposition Yposition Zposition Zrotation Yrotation Xrotation
						JOINT RightHand
						{
							OFFSET -2.378450 0.000000 0.000000
							CHANNELS 6 Xposition Yposition Zposition Zrotation Yrotation Xrotation
							End Site
							{
								OFFSET -1.362267 0.000000 0.000000
							}
						}
					}
				}
			}
		}
	}
	JOINT LeftUpLeg
	{
		OFFSET 0.908180 0.000000 0.000000
		CHANNELS 6 Xposition Yposition Zposition Zrotation Yrotation Xrotation
		JOINT LeftLeg
		{
			OFFSET 0.000000 -3.819490 -0.000004
			CHANNELS 6 Xposition Yposition Zposition Zrotation Yrotation Xrotation
			JOINT LeftFoot
			{
				OFFSET 0.000000 -4.004300 -0.000004
				CHANNELS 6 Xposition Yposition Zposition Zrotation Yrotation Xrotation
				JOINT LeftToeBase
				{
					OFFSET 0.000000 -0.590317 1.362270
					CHANNELS 6 Xposition Yposition Zposition Zrotation Yrotation Xrotation
					End Site
					{
						OFFSET 0.000000 0.000000 0.363271
					}
				}
			}
		}
	}
	JOINT RightUpLeg
	{
		OFFSET -0.908180 0.000000 0.000000
		CHANNELS 6 Xposition Yposition Zposition Zrotation Yrotation Xrotation
		JOINT RightLeg
		{
			OFFSET 0.000000 -3.819490 -0.000004
			CHANNELS 6 Xposition Yposition Zposition Zrotation Yrotation Xrotation
			JOINT RightFoot
			{
				OFFSET 0.000000 -4.004300 -0.000004
				CHANNELS 6 Xposition Yposition Zposition Zrotation Yrotation Xrotation
				JOINT RightToeBase
				{
					OFFSET 0.000000 -0.590317 1.362270
					CHANNELS 6 Xposition Yposition Zposition Zrotation Yrotation Xrotation
					End Site
					{
						OFFSET 0.000000 0.000000 0.363271
					}
				}
			}
		}
	}
}
MOTION
Frames: 6
Frame Time: 0.016667
-1.172897 7.610187 1.838408 1.288274 -0.395873 9.127489 -0.000000 0.744705 0.000000 -3.665206 -3.403729 -17.651970 -0.000000 2.032241 0.000003 12.156547 -1.576741 5.847947 -0.000000 2.213884 0.000001 1.482664 3.121216 12.521029 0.000000 1.407680 0.181637 -7.410037 4.537660 1.176121 0.365767 1.787590 -0.048012 20.948134 2.779218 -8.128964 1.305162 0.000003 0.000000 -1.623306 -12.738875 -9.556340 2.559211 -0.000000 0.000001 -2.217019 0.438799 -5.884776 2.378450 -0.000001 0.000002 -6.243117 19.331341 -6.940239 -0.360721 1.787591 -0.048011 -16.921022 -5.478449 1.094720 -1.305160 0.000002 -0.000000 16.867430 20.779478 40.689319 -2.559210 -0.000000 0.000001 -93.107889 59.010546 -62.953860 -2.378451 0.000000 0.000000 -48.195768 -11.482103 3.922380 0.908180 -0.000002 -0.000000 13.002028 15.189362 -18.407102 0.000000 -3.819491 -0.000003 -0.369229 4.162646 22.699200 0.000001 -4.004302 -0.000004 -9.223294 17.957332 -2.012999 -0.000000 -0.590317 1.362270 0.000003 -0.000001 0.000004 -0.908180 -0.000002 -0.000000 -20.742876 -5.085460 -22.326609 0.000002 -3.819490 -0.000004 18.888705 11.557080 31.042445 -0.000002 -4.004300 -0.000004 21.485750 -45.704235 -22.891528 -0.000000 -0.590315 1.362269 -0.000005 -0.000001 0.000005 
-1.173770 7.610147 1.838431 1.279593 -0.402953 9.126816 -0.000000 0.744703 0.000000 -3.659699 -3.397789 -17.659869 0.000000 2.032235 0.000002 12.159730 -1.575751 5.852898 0.000000 2.213881 0.000000 1.510020 3.170014 12.538545 0.000000 1.407683 0.181637 -7.420502 4.590774 1.119172 0.365767 1.787589 -0.048011 20.938210 2.773160 -8.136524 1.305161 0.000000 -0.000000 -1.618629 -12.732854 -9.563704 2.559210 -0.000001 -0.000002 -2.231392 0.443652 -5.889455 2.378453 -0.000003 0.000001 -6.193097 19.344918 -6.936965 -0.360721 1.787587 -0.048011 -16.925859 -5.470950 1.092842 -1.305161 -0.000003 -0.000000 16.860013 20.753917 40.749585 -2.559211 0.000001 0.000002 -93.141364 58.938262 -62.955554 -2.378449 -0.000002 -0.000001 -48.191448 -11.464119 3.867342 0.908180 -0.000002 -0.000000 13.021225 15.169266 -18.396326 0.000000 -3.819491 -0.000003 -0.363510 4.184730 22.690783 -0.000000 -4.004303 -0.000002 -9.270993 17.964680 -2.017417 -0.000000 -0.590317 1.362270 0.000000 0.000003 -0.000000 -0.908180 -0.000003 -0.000000 -20.724467 -5.087832 -22.326070 0.000002 -3.819490 -0.000004 18.874920 11.546867 31.034348 -0.000000 -4.004301 -0.000003 21.462452 -45.684622 -22.876131 0.000000 -0.590316 1.362270 0.000002 0.000002 0.000002 
-1.174628 7.609982 1.838609 1.279429 -0.402780 9.119695 -0.000000 0.744707 0.000000 -3.661673 -3.397976 -17.655440 0.000000 2.032242 0.000001 12.162789 -1.575568 5.849426 -0.000000 2.213880 0.000000 1.531412 3.227793 12.536688 -0.000000 1.407685 0.181637 -7.406442 4.650200 1.093338 0.365767 1.787591 -0.048011 20.923654 2.769934 -8.144236 1.305161 0.000002 0.000000 -1.613042 -12.727649 -9.536295 2.559211 0.000005 -0.000001 -2.238014 0.443388 -5.897065 2.378448 -0.000002 0.000001 -6.193093 19.349719 -6.944822 -0.360723 1.787589 -0.048012 -16.931199 -5.476753 1.106326 -1.305161 0.000002 -0.000000 16.843569 20.756807 40.744845 -2.559210 -0.000002 0.000002 -93.166246 58.927184 -62.983797 -2.378450 -0.000000 -0.000000 -48.200543 -11.504563 3.869013 0.908180 -0.000000 -0.000000 13.031997 15.147089 -18.384395 0.000000 -3.819491 -0.000003 -0.368487 4.170042 22.682614 -0.000000 -4.004300 -0.000003 -9.233353 17.995622 -2.011795 -0.000000 -0.590317 1.362270 -0.000000 -0.000005 0.000002 -0.908180 0.000001 -0.000000 -20.712515 -5.107465 -22.320322 -0.000000 -3.819490 -0.000004 18.889197 11.583796 31.049435 -0.000001 -4.004298 -0.000003 21.430946 -45.697101 -22.874799 0.000000 -0.590317 1.362270 0.000001 0.000001 0.000002 
-1.175332 7.609899 1.838419 1.268861 -0.412013 9.119196 0.000000 0.744707 0.000000 -3.650038 -3.389765 -17.660146 -0.000000 2.032239 0.000000 12.162135 -1.573944 5.854195 -0.000000 2.213878 0.000001 1.550086 3.277903 12.538463 -0.000000 1.407676 0.181636 -7.398366 4.701532 1.059881 0.365767 1.787590 -0.048012 20.926375 2.777633 -8.149386 1.305159 -0.000001 -0.000000 -1.632484 -12.729986 -9.506794 2.559211 0.000002 -0.000001 -2.232529 0.439101 -5.906632 2.378449 -0.000001 0.000000 -6.200880 19.360364 -6.956420 -0.360721 1.787588 -0.048011 -16.945640 -5.472360 1.100986 -1.305161 -0.000001 0.000001 16.844148 20.744956 40.725969 -2.559210 0.000001 -0.000001 -93.184537 58.946083 -63.009554 -2.378450 -0.000003 -0.000003 -48.207140 -11.517369 3.885273 0.908180 -0.000000 0.000000 13.053286 15.110332 -18.373626 0.000000 -3.819491 -0.000003 -0.354651 4.208678 22.670253 0.000001 -4.004302 -0.000003 -9.239017 18.000224 -2.013465 0.000000 -0.590317 1.362270 0.000000 0.000007 -0.000002 -0.908180 0.000001 0.000000 -20.696744 -5.104152 -22.336776 0.000002 -3.819491 -0.000003 18.909601 11.602544 31.073761 -0.000001 -4.004301 -0.000003 21.454490 -45.714835 -22.894422 -0.000001 -0.590317 1.362268 -0.000000 -0.000002 -0.000001 
-1.176150 7.609684 1.838445 1.272476 -0.411411 9.111219 0.000000 0.744707 0.000000 -3.656857 -3.388388 -17.658740 -0.000000 2.032235 0.000001 12.162543 -1.573568 5.857604 -0.000000 2.213880 0.000000 1.574239 3.317046 12.552773 -0.000000 1.407677 0.181637 -7.400285 4.743586 1.011655 0.365767 1.787589 -0.048012 20.920306 2.781166 -8.141387 1.305162 0.000004 -0.000000 -1.626831 -12.742807 -9.525649 2.559209 0.000000 0.000001 -2.236517 0.450712 -5.897573 2.378448 -0.000001 0.000001 -6.190741 19.352047 -6.944938 -0.360721 1.787590 -0.048012 -16.955410 -5.466317 1.096820 -1.305160 -0.000001 0.000001 16.843381 20.722516 40.693540 -2.559211 -0.000005 0.000003 -93.210369 58.973486 -63.030755 -2.378449 -0.000002 -0.000001 -48.166730 -11.520618 3.911679 0.908180 -0.000001 0.000000 13.015054 15.161630 -18.375215 -0.000000 -3.819492 -0.000003 -0.287986 4.198409 22.667818 -0.000000 -4.004300 -0.000002 -9.256776 17.937030 -1.997707 -0.000000 -0.590316 1.362270 0.000003 0.000003 0.000007 -0.908180 0.000000 0.000000 -20.693947 -5.120422 -22.339471 0.000001 -3.819491 -0.000002 18.915825 11.595381 31.096256 -0.000002 -4.004302 -0.000003 21.455142 -45.697534 -22.904788 -0.000001 -0.590315 1.362269 -0.000002 -0.000004 -0.000004 
-1.176778 7.609550 1.838492 1.269426 -0.416833 9.103878 -0.000000 0.744707 -0.000000 -3.654667 -3.382641 -17.659835 0.000000 2.032238 0.000002 12.159648 -1.572423 5.865164 -0.000000 2.213881 0.000002 1.603545 3.347500 12.544361 0.000001 1.407682 0.181636 -7.409392 4.781791 1.001788 0.365767 1.787592 -0.048011 20.931274 2.784064 -8.155172 1.305161 0.000002 0.000000 -1.644981 -12.743805 -9.534866 2.559211 0.000000 0.000001 -2.240038 0.455936 -5.871933 2.378453 -0.000004 0.000001 -6.193491 19.347354 -6.919380 -0.360721 1.787590 -0.048011 -16.960608 -5.458272 1.092277 -1.305160 0.000004 0.000001 16.842715 20.702435 40.706029 -2.559210 0.000002 0.000000 -93.225525 58.953589 -63.038111 -2.378449 0.000001 0.000000 -48.200887 -11.553258 3.915954 0.908180 0.000001 -0.000000 13.018475 15.173818 -18.363817 0.000000 -3.819492 -0.000003 -0.303390 4.139549 22.665732 -0.000000 -4.004302 -0.000002 -9.310954 17.990732 -2.019290 -0.000000 -0.590316 1.362270 0.000001 -0.000003 0.000008 -0.908180 0.000001 0.000000 -20.692347 -5.124351 -22.331425 -0.000000 -3.819491 -0.000004 18.944032 11.627823 31.098408 -0.000001 -4.004301 -0.000002 21.423416 -45.717871 -22.902147 0.000001 -0.590317 1.362270 0.000003 -0.000001 -0.000000 
